<?xml version="1.0" encoding="iso-8859-1"?>
<!-- Generator: Adobe Illustrator 19.0.0, SVG Export Plug-In . SVG Version: 6.00 Build 0)  -->
<svg version="1.1" id="Layer_1" xmlns="http://www.w3.org/2000/svg" xmlns:xlink="http://www.w3.org/1999/xlink" x="0px" y="0px"
	 viewBox="0 0 505.6 505.6" style="enable-background:new 0 0 505.6 505.6;" xml:space="preserve">
<path style="fill:#13A289;" d="M338.2,162.4L338.2,162.4L307,144v0.4l-52,94.8l20.4,37.6L338.2,162.4z"/>
<g>
	<path style="fill:#CCCCCC;" d="M166.2,161.6l0.4,0.4l0,0C166.6,162,166.6,162,166.2,161.6z"/>
	<path style="fill:#CCCCCC;" d="M198.6,142.8c-0.4,0.4-0.4,0.8,0,1.6l0.4-0.4C198.6,143.6,198.6,143.2,198.6,142.8z"/>
</g>
<path style="fill:#E8E3E3;" d="M231,282.8L148.2,434c-17.2,31.6-0.4,56.4,5.2,63.6c0,0,97.6-177.2,98-177.2L231,282.8z"/>
<path style="fill:#F4EFEF;" d="M357,434L252.6,243.2l-20.4,37.6L351.4,498C357.4,490.8,374.2,466,357,434z M252.6,290
	c-5.2,0-9.6-4.4-9.6-9.6s4.4-9.6,9.6-9.6s9.6,4.4,9.6,9.6C262.2,285.6,257.8,290,252.6,290z"/>
<g>
	<polygon style="fill:#13A289;" points="198.6,144.8 167,162.4 167,162.4 232.2,280.8 252.6,243.2 	"/>
	<path style="fill:#13A289;" d="M361,6.4c-43.6,0-78.8,35.2-78.8,78.8c0,21.6,8.4,41.6,23.6,56.4c0.4,0.4,0.4,0.4,0.4,0.8
		c0.4,0.4,0.4,1.2,0.4,2l31.6,18l0.4-0.4c0.4-0.4,1.2-0.8,2-0.4c6.4,1.6,13.6,2.8,20.4,2.8c43.6,0,78.8-35.2,78.8-78.8
		C439.8,42,404.6,6.4,361,6.4z M360.2,136.4c-28.4,0-51.2-22.8-51.2-51.2S331.8,34,360.2,34s51.2,22.8,51.2,51.2
		S388.2,136.4,360.2,136.4z"/>
</g>
<circle style="fill:#FFFFFF;" cx="360.2" cy="85.2" r="51.2"/>
<path style="fill:#13A289;" d="M126.2,164c42.4,9.6,87.2-18.8,96.8-61.2c9.6-42.4-19.2-85.2-61.6-94.8c-6.8-1.6-13.6-2-20.4-2
	c-0.8,0-1.2-0.4-1.6-0.8L139,4.8l-34.8,10.8c0,0.4,0,1.2-0.4,1.6c0,0.4-0.4,0.8-0.8,0.8C84.6,29.2,72.2,46.8,67.4,68
	C57.4,110.4,83.8,154.4,126.2,164z M156.2,35.2c27.6,6.4,44.8,33.6,38.8,61.2c-6.4,27.6-33.6,44.8-61.2,38.8
	C106.2,128.8,89,101.6,95,74C101.4,46.4,128.6,29.2,156.2,35.2z"/>
<circle style="fill:#CCCCCC;" cx="252.6" cy="280.4" r="5.6"/>
<path d="M351,505.2h-0.4c-1.2,0-2.4-0.8-2.8-2L162.2,165.6c-1.2-2-0.4-4.4,1.6-5.6s4.4-0.4,5.6,1.6L352.2,494
	c6.4-8.8,18.4-31.2,3.6-58.8L197.4,145.6c-1.2-2-0.4-4.4,1.6-5.6s4.4-0.4,5.6,1.6L363,431.2c22.4,40.8-8,72.4-8.4,72.8
	C353,504.8,352.2,505.2,351,505.2z"/>
<path d="M144.2,169.6c-46.8,0-84.8-38-84.8-84.8S97.4,0,144.2,0S229,38,229,84.8c0,23.2-9.2,44.8-25.6,60.8c-1.6,1.6-4,1.6-5.6,0
	s-1.6-4,0-5.6c14.8-14.4,23.2-34,23.2-55.2C221,42.4,186.6,8,144.2,8S67.4,42.4,67.4,84.8s34.4,76.8,76.8,76.8
	c7.6,0,14-0.8,19.6-2.8c2-0.8,4.4,0.4,5.2,2.8c0.8,2-0.4,4.4-2.8,5.2C159.8,168.4,152.6,169.6,144.2,169.6z M144.2,142.4
	c-31.6,0-57.2-25.6-57.2-57.2S112.6,28,144.2,28c11.6,0,23.6,4,34,11.2c2,1.2,2.4,3.6,0.8,5.6c-1.2,2-3.6,2.4-5.6,0.8
	c-9.2-6.4-19.2-9.6-29.2-9.6C117,36,95,58,95,85.2s22,49.2,49.2,49.2s49.2-22,49.2-49.2c0-2.4,1.6-4,4-4s4,1.6,4,4
	C201.4,116.8,175.8,142.4,144.2,142.4z"/>
<path d="M361,170c-8.4,0-16-1.6-21.6-2.8c-2-0.4-3.6-2.8-2.8-4.8c0.4-2,2.8-3.6,4.8-2.8c5.2,1.2,12.4,2.8,20,2.8
	c42.4,0,76.8-34.4,76.8-76.8S403.8,8.8,361.4,8.8s-76.8,34.4-76.8,76.8c0,20.8,8.4,40.4,23.2,55.2c1.6,1.6,1.6,4,0,5.6s-4,1.6-5.6,0
	c-16.4-16-25.6-37.6-25.6-60.8c0-46.8,38-84.8,84.8-84.8s84.8,38,84.8,84.8C445.8,132,407.8,170,361,170z M361,142.4
	c-31.6,0-57.2-25.6-57.2-57.2S329.4,28,361,28c12,0,24,4,34,11.2c1.6,1.2,2,4,0.8,5.6s-4,2-5.6,0.8c-8.4-6.4-18.8-9.6-29.2-9.6
	c-27.2,0-49.2,22-49.2,49.2s22,49.2,49.2,49.2s49.2-22,49.2-49.2c0-2.4,1.6-4,4-4s4,1.6,4,4C418.2,116.8,392.6,142.4,361,142.4z"/>
<path d="M252.6,243.6c-0.8,0-1.2,0-2-0.4c-2-1.2-2.8-3.6-1.6-5.6l52.4-96c1.2-2,3.6-2.8,5.6-1.6c2,1.2,2.8,3.6,1.6,5.6l-52.4,96
	C255.4,242.8,254.2,243.6,252.6,243.6z"/>
<path d="M154.2,505.6c-1.2,0-2-0.4-2.8-1.2c-0.4-0.4-30.8-31.6-8.4-72.8l83.2-152.8c1.2-2,3.6-2.8,5.6-1.6c2,1.2,2.8,3.6,1.6,5.6
	l-83.2,152.8c-15.2,27.6-3.2,50,3.6,58.8l95.6-174c1.2-2,3.6-2.8,5.6-1.6c2,1.2,2.8,3.6,1.6,5.6l-98.4,179.2c-0.8,1.2-1.6,2-2.8,2
	C154.6,505.6,154.2,505.6,154.2,505.6z"/>
<path d="M275.4,284.8c-0.8,0-1.2,0-2-0.4c-2-1.2-2.8-3.6-1.6-5.6l64.4-117.2c1.2-2,3.6-2.8,5.6-1.6c2,1.2,2.8,3.6,1.6,5.6L279,282.8
	C278.2,284,277,284.8,275.4,284.8z"/>
<path d="M252.6,292c-6.4,0-11.6-5.2-11.6-11.6s5.2-11.6,11.6-11.6c6.4,0,11.6,5.2,11.6,11.6S259,292,252.6,292z M252.6,276.8
	c-2,0-3.6,1.6-3.6,3.6s1.6,3.6,3.6,3.6s3.6-1.6,3.6-3.6S254.6,276.8,252.6,276.8z"/>
<g>
</g>
<g>
</g>
<g>
</g>
<g>
</g>
<g>
</g>
<g>
</g>
<g>
</g>
<g>
</g>
<g>
</g>
<g>
</g>
<g>
</g>
<g>
</g>
<g>
</g>
<g>
</g>
<g>
</g>
</svg>
